<svg width="260" height="260" viewBox="0 0 260 260" fill="none" xmlns="http://www.w3.org/2000/svg">
  <circle cx="130" cy="130" r="130" fill="black" />
  <path d="M155.648 186.841L129.307 161.886L105.739 186.841H155.648Z" fill="#BFFF0B"
    stroke="#BFFF0B" stroke-width="2.77273" stroke-linejoin="round" />
  <path
    d="M186.148 186.841L72.4658 73.1591V186.841M186.148 186.841L87.7158 73.1591L72.4658 186.841M186.148 186.841L101.579 73.1591L72.4658 186.841M186.148 186.841L116.829 73.1591L72.4658 186.841M186.148 186.841L130.693 73.1591L72.4658 186.841M186.148 186.841L144.557 73.1591L72.4658 186.841M186.148 186.841L159.807 73.1591L72.4658 186.841M186.148 186.841L173.67 73.1591L72.4658 186.841M186.148 186.841L187.534 73.1591L72.4658 186.841"
    stroke="url(#paint0_linear_7575_8468)" stroke-width="2.77273" stroke-linejoin="round" />
  <defs>
    <linearGradient id="paint0_linear_7575_8468" x1="130" y1="73.1591" x2="130" y2="186.841"
      gradientUnits="userSpaceOnUse">
      <stop stop-color="#0BC4FF" />
      <stop offset="1" stop-color="#BFFF0B" />
    </linearGradient>
  </defs>
</svg>
  